<?xml version="1.0" standalone="no"?>
<!DOCTYPE svg PUBLIC "-//W3C//DTD SVG 20010904//EN"
 "http://www.w3.org/TR/2001/REC-SVG-20010904/DTD/svg10.dtd">
<svg version="1.0" xmlns="http://www.w3.org/2000/svg"
 width="804.000000pt" height="804.000000pt" viewBox="0 0 804.000000 804.000000"
 preserveAspectRatio="xMidYMid meet">

<g transform="translate(0.000000,804.000000) scale(0.100000,-0.100000)"
fill="#000000" stroke="none">
<path d="M1155 7800 c-266 -132 -366 -201 -536 -370 -227 -226 -366 -460 -454
-765 -67 -234 -79 -634 -70 -2500 7 -1550 19 -2463 35 -2660 14 -171 33 -258
82 -382 171 -432 559 -805 1033 -993 207 -82 266 -84 3128 -76 l2408 6 182 95
c219 115 334 195 480 335 216 206 341 380 472 656 l85 178 0 2659 0 2659 -78
167 c-85 179 -132 262 -220 385 -115 160 -325 359 -497 469 -38 24 -161 90
-272 146 l-203 101 -2677 0 -2678 -1 -220 -109z m4025 -860 c318 -7 474 -14
548 -25 440 -68 903 -433 1132 -893 91 -183 140 -358 162 -577 19 -189 19
-2733 0 -2920 -20 -199 -54 -333 -127 -506 -147 -350 -494 -707 -836 -863
-153 -69 -272 -99 -454 -116 -316 -29 -2670 -37 -2975 -11 -280 25 -445 65
-637 156 -153 73 -248 140 -379 270 -278 277 -458 609 -509 945 -26 162 -35
579 -35 1585 0 1006 9 1421 35 1587 20 133 86 329 156 468 197 384 556 702
938 830 151 51 257 62 666 69 554 11 1810 11 2315 1z"/>
<path d="M2925 6404 c-303 -12 -515 -37 -635 -75 -124 -39 -178 -75 -305 -203
-280 -281 -334 -427 -366 -991 -15 -281 -16 -2007 0 -2285 20 -351 42 -497 99
-642 43 -112 112 -209 242 -339 128 -129 214 -187 355 -238 143 -51 210 -60
562 -72 397 -14 2241 -6 2478 10 439 30 581 77 750 246 268 268 337 421 375
830 37 396 37 2277 0 2680 -34 370 -94 521 -299 749 -204 227 -323 278 -736
317 -110 10 -2298 21 -2520 13z m2887 -522 c120 -59 201 -175 201 -287 1 -160
-184 -351 -360 -372 -185 -21 -344 150 -343 370 1 119 42 198 134 262 73 50
126 65 221 62 68 -2 91 -7 147 -35z m-1422 -408 c192 -28 359 -98 520 -217
349 -261 556 -565 646 -952 26 -110 28 -137 28 -320 0 -169 -3 -215 -22 -298
-94 -421 -313 -737 -691 -996 -159 -109 -269 -155 -460 -191 -254 -49 -576
-49 -765 -1 -94 25 -221 78 -328 138 -417 235 -726 689 -789 1160 -16 123 -6
372 21 488 73 322 197 545 434 780 247 244 424 348 684 400 178 36 505 40 722
9z"/>
<path d="M3867 4965 c-340 -65 -610 -292 -727 -613 -49 -135 -63 -235 -57
-412 7 -185 26 -268 96 -415 128 -268 384 -462 689 -521 153 -29 352 -13 512
41 248 84 477 286 575 509 57 128 69 205 70 421 0 179 -3 209 -23 285 -96 350
-341 594 -689 686 -125 33 -328 41 -446 19z"/>
</g>
</svg>
