<?xml version="1.0" encoding="UTF-8"?>
<svg xmlns="http://www.w3.org/2000/svg" xmlns:xlink="http://www.w3.org/1999/xlink" width="534pt" height="534pt" viewBox="0 0 534 534" version="1.1">
<g id="surface1">
<path style=" stroke:none;fill-rule:nonzero;fill:rgb(0%,0%,0%);fill-opacity:1;" d="M 58.738281 187.433594 C 50.730469 191.4375 44.589844 197.3125 40.851562 204.253906 C 35.242188 214.402344 34.710938 218.140625 34.710938 267 C 34.710938 315.859375 35.242188 319.597656 40.851562 329.746094 C 44.589844 336.6875 50.730469 342.5625 58.738281 346.300781 C 69.6875 351.90625 73.960938 352.441406 119.347656 352.441406 C 172.75 352.441406 179.957031 350.839844 192.773438 337.488281 C 204.253906 325.207031 205.589844 317.730469 205.589844 266.734375 C 205.589844 214.402344 203.988281 206.925781 190.636719 194.375 C 178.089844 182.894531 170.878906 181.558594 119.082031 181.558594 C 73.960938 181.558594 69.6875 182.09375 58.738281 187.433594 Z M 179.15625 207.992188 L 186.898438 215.734375 L 186.898438 318.265625 L 179.425781 325.738281 C 169.546875 335.617188 157.261719 337.222656 108.136719 335.886719 L 69.421875 335.085938 L 60.875 326.273438 L 52.066406 317.730469 L 52.066406 216.535156 L 59.808594 208.527344 L 67.816406 200.25 L 171.414062 200.25 Z M 179.15625 207.992188 "/>
<path style=" stroke:none;fill-rule:nonzero;fill:rgb(0%,0%,0%);fill-opacity:1;" d="M 96.121094 219.472656 C 43.789062 247.507812 67.015625 325.472656 126.023438 319.867188 C 151.921875 317.195312 173.550781 293.433594 173.550781 267 C 173.550781 228.019531 130.296875 201.316406 96.121094 219.472656 Z M 140.441406 237.628906 C 148.984375 242.96875 155.660156 255.785156 155.660156 266.734375 C 155.660156 281.953125 148.183594 293.433594 134.566406 299.574219 C 114.007812 308.386719 94.785156 300.375 86.507812 279.015625 C 82.234375 267.800781 82.234375 266.199219 86.507812 255.253906 C 91.847656 241.636719 95.050781 238.164062 108.402344 233.625 C 118.816406 230.152344 130.828125 231.757812 140.441406 237.628906 Z M 140.441406 237.628906 "/>
<path style=" stroke:none;fill-rule:nonzero;fill:rgb(0%,0%,0%);fill-opacity:1;" d="M 102.527344 249.644531 C 97.453125 254.71875 96.121094 258.722656 96.652344 265.132812 C 97.722656 276.34375 106.53125 276.878906 111.605469 266.199219 C 113.476562 262.195312 116.679688 258.988281 118.546875 258.988281 C 123.886719 258.988281 128.425781 252.316406 126.558594 247.242188 C 123.886719 240.566406 110.269531 241.902344 102.527344 249.644531 Z M 102.527344 249.644531 "/>
<path style=" stroke:none;fill-rule:nonzero;fill:rgb(0%,0%,0%);fill-opacity:1;" d="M 242.96875 189.570312 C 242.96875 194.910156 244.304688 197.578125 246.976562 197.578125 C 250.179688 197.578125 250.980469 201.316406 250.980469 214.933594 C 250.980469 228.550781 250.179688 232.289062 246.976562 232.289062 C 244.304688 232.289062 242.96875 234.960938 242.96875 240.300781 L 242.96875 248.308594 L 280.351562 248.308594 L 280.351562 240.300781 C 280.351562 234.160156 279.28125 232.289062 275.011719 232.289062 C 270.203125 232.289062 269.671875 230.421875 269.671875 215.203125 C 269.671875 200.25 270.203125 198.113281 275.277344 196.777344 C 279.28125 195.710938 280.617188 193.574219 279.816406 189.035156 C 279.015625 183.429688 277.414062 182.894531 261.125 182.09375 L 242.96875 181.292969 Z M 242.96875 189.570312 "/>
<path style=" stroke:none;fill-rule:nonzero;fill:rgb(0%,0%,0%);fill-opacity:1;" d="M 387.949219 194.910156 C 387.148438 197.847656 385.546875 200.25 384.214844 200.25 C 382.878906 200.25 381.808594 203.1875 381.808594 206.925781 C 381.808594 210.664062 383.144531 213.601562 384.480469 213.601562 C 386.082031 213.601562 387.148438 221.074219 387.148438 230.953125 L 387.148438 248.308594 L 405.839844 248.308594 L 405.839844 230.953125 C 405.839844 217.339844 406.640625 213.601562 409.84375 213.601562 C 412.246094 213.601562 413.851562 211.195312 413.851562 206.925781 C 413.851562 202.117188 412.515625 200.25 408.511719 200.25 C 405.039062 200.25 403.171875 198.382812 403.171875 194.910156 C 403.171875 190.90625 401.300781 189.570312 396.226562 189.570312 C 391.6875 189.570312 388.753906 191.171875 387.949219 194.910156 Z M 387.949219 194.910156 "/>
<path style=" stroke:none;fill-rule:nonzero;fill:rgb(0%,0%,0%);fill-opacity:1;" d="M 284.890625 206.125 C 284.089844 208.792969 285.15625 212.800781 287.292969 214.667969 C 289.695312 217.070312 291.03125 224.28125 291.03125 233.359375 C 291.03125 248.308594 291.03125 248.308594 299.039062 248.308594 L 307.050781 248.308594 L 307.050781 232.289062 C 307.050781 219.742188 307.851562 216.269531 311.054688 216.269531 C 314.257812 216.269531 315.058594 219.742188 315.058594 232.289062 L 315.058594 248.308594 L 331.078125 248.308594 L 331.078125 228.550781 C 331.078125 202.921875 328.945312 200.785156 304.648438 201.050781 C 289.160156 201.316406 285.957031 202.117188 284.890625 206.125 Z M 284.890625 206.125 "/>
<path style=" stroke:none;fill-rule:nonzero;fill:rgb(0%,0%,0%);fill-opacity:1;" d="M 344.695312 205.324219 C 341.492188 208.527344 339.089844 212.800781 339.089844 214.933594 C 339.089844 219.742188 350.839844 232.289062 355.109375 232.289062 C 356.710938 232.289062 357.511719 233.359375 356.445312 234.960938 C 355.378906 236.5625 352.441406 236.5625 348.167969 234.960938 C 338.824219 231.222656 338.554688 231.488281 339.625 239.5 C 340.425781 246.707031 340.960938 246.976562 355.109375 246.976562 C 368.191406 246.976562 370.0625 246.175781 373.800781 239.765625 C 378.339844 231.222656 375.9375 225.082031 366.058594 220.007812 C 358.582031 216.003906 358.847656 212.53125 366.589844 212.265625 C 370.597656 212.265625 372.464844 210.664062 372.464844 206.925781 C 372.464844 198.914062 352.171875 197.847656 344.695312 205.324219 Z M 344.695312 205.324219 "/>
<path style=" stroke:none;fill-rule:nonzero;fill:rgb(0%,0%,0%);fill-opacity:1;" d="M 422.929688 204.253906 C 420.523438 210.128906 424.53125 214.132812 431.203125 212.53125 C 434.675781 211.730469 438.148438 211.996094 438.949219 213.332031 C 439.75 214.667969 436.8125 216.269531 432.007812 217.339844 C 420.523438 219.472656 416.519531 223.480469 416.519531 232.558594 C 416.519531 244.839844 422.394531 248.042969 443.21875 247.777344 L 461.910156 247.777344 L 461.910156 240.03125 C 461.910156 235.761719 460.84375 232.289062 459.238281 232.289062 C 457.90625 232.289062 456.570312 227.75 456.570312 222.144531 C 456.570312 206.65625 450.695312 200.25 436.277344 200.25 C 428.269531 200.25 423.996094 201.585938 422.929688 204.253906 Z M 440.550781 230.953125 C 440.550781 233.089844 438.679688 234.960938 436.546875 234.960938 C 434.410156 234.960938 432.539062 233.089844 432.539062 230.953125 C 432.539062 228.820312 434.410156 226.949219 436.546875 226.949219 C 438.679688 226.949219 440.550781 228.820312 440.550781 230.953125 Z M 440.550781 230.953125 "/>
<path style=" stroke:none;fill-rule:nonzero;fill:rgb(0%,0%,0%);fill-opacity:1;" d="M 252.582031 294.234375 C 248.84375 309.453125 244.839844 324.40625 243.769531 327.875 C 242.4375 333.75 242.96875 334.015625 251.246094 333.214844 C 258.1875 332.683594 260.59375 331.078125 261.125 326.273438 C 261.925781 321.46875 263.796875 320.398438 271.003906 320.398438 C 278.214844 320.398438 280.082031 321.46875 280.882812 326.273438 C 281.417969 331.347656 283.554688 332.683594 291.832031 333.214844 C 297.171875 333.75 301.710938 333.214844 301.710938 332.414062 C 301.710938 330.8125 294.5 301.441406 288.09375 276.878906 C 285.421875 267.265625 285.15625 267 272.605469 267 L 259.789062 267 Z M 274.742188 302.242188 C 275.011719 304.914062 273.140625 307.050781 271.003906 307.050781 C 266.734375 307.050781 266.199219 303.847656 268.867188 293.96875 C 270.472656 287.824219 270.738281 287.824219 272.605469 292.632812 C 273.675781 295.300781 274.742188 299.839844 274.742188 302.242188 Z M 274.742188 302.242188 "/>
<path style=" stroke:none;fill-rule:nonzero;fill:rgb(0%,0%,0%);fill-opacity:1;" d="M 308.117188 288.09375 C 305.980469 290.496094 307.050781 301.710938 309.71875 301.710938 C 311.320312 301.710938 312.390625 311.855469 312.390625 327.074219 L 312.390625 352.441406 L 320.398438 352.441406 C 327.875 352.441406 328.410156 351.640625 328.410156 343.09375 C 328.410156 334.550781 329.210938 333.75 335.886719 333.75 C 346.03125 333.75 352.707031 325.738281 354.308594 311.855469 C 355.378906 302.777344 354.308594 298.773438 350.035156 293.164062 C 344.695312 286.492188 342.828125 285.957031 326.808594 286.492188 C 317.195312 286.757812 308.917969 287.558594 308.117188 288.09375 Z M 337.488281 305.980469 C 339.890625 312.121094 336.953125 320.398438 332.148438 320.398438 C 329.746094 320.398438 328.410156 317.730469 328.410156 312.925781 C 328.410156 301.710938 334.285156 297.4375 337.488281 305.980469 Z M 337.488281 305.980469 "/>
<path style=" stroke:none;fill-rule:nonzero;fill:rgb(0%,0%,0%);fill-opacity:1;" d="M 361.519531 288.09375 C 359.382812 290.496094 360.449219 301.710938 363.121094 301.710938 C 364.722656 301.710938 365.789062 311.855469 365.789062 327.074219 L 365.789062 352.441406 L 373.800781 352.441406 C 381.277344 352.441406 381.808594 351.640625 381.808594 343.09375 C 381.808594 334.550781 382.609375 333.75 389.285156 333.75 C 400.765625 333.75 407.175781 324.9375 407.175781 309.71875 C 407.175781 290.496094 401.835938 285.957031 379.941406 286.492188 C 370.597656 286.757812 362.320312 287.558594 361.519531 288.09375 Z M 390.886719 305.980469 C 393.289062 312.121094 390.355469 320.398438 385.546875 320.398438 C 383.144531 320.398438 381.808594 317.730469 381.808594 312.925781 C 381.808594 301.710938 387.683594 297.4375 390.886719 305.980469 Z M 390.886719 305.980469 "/>
</g>
</svg>
