<?xml version="1.0" standalone="no"?>
<!DOCTYPE svg PUBLIC "-//W3C//DTD SVG 20010904//EN"
 "http://www.w3.org/TR/2001/REC-SVG-20010904/DTD/svg10.dtd">
<svg version="1.0" xmlns="http://www.w3.org/2000/svg"
 width="804.000000pt" height="804.000000pt" viewBox="0 0 804.000000 804.000000"
 preserveAspectRatio="xMidYMid meet">

<g transform="translate(0.000000,804.000000) scale(0.100000,-0.100000)"
fill="#000000" stroke="none">
<path d="M1900 7873 c-359 -38 -739 -199 -1024 -432 -141 -116 -320 -316 -411
-461 -129 -203 -215 -417 -272 -673 l-27 -122 -3 -2125 c-3 -1890 -2 -2138 12
-2239 105 -757 642 -1385 1374 -1607 64 -19 170 -45 236 -57 l120 -22 2125 0
c2022 0 2130 1 2230 18 143 26 274 61 381 102 703 271 1184 898 1259 1640 8
78 10 710 8 2185 -4 2073 -4 2075 -25 2185 -12 61 -38 162 -57 226 -222 731
-849 1268 -1605 1373 -99 14 -354 16 -2199 14 -1148 0 -2103 -3 -2122 -5z
m4285 -546 c210 -43 393 -117 549 -222 278 -186 489 -473 581 -790 58 -202 56
-93 53 -2355 -3 -1953 -5 -2079 -22 -2150 -70 -295 -192 -517 -396 -720 -203
-204 -425 -326 -720 -396 -71 -17 -197 -19 -2150 -22 -2262 -3 -2153 -5 -2355
53 -317 92 -604 303 -790 581 -108 161 -183 348 -223 559 -16 83 -17 249 -17
2145 l0 2055 23 113 c59 292 192 543 397 747 235 236 543 382 875 415 41 4
984 7 2095 6 1835 -2 2027 -4 2100 -19z"/>
<path d="M3650 5365 l0 -1005 -1000 0 -1000 0 0 -375 0 -375 1000 0 1000 0 0
-1000 0 -1000 375 0 375 0 0 1000 0 1000 1000 0 1000 0 0 375 0 375 -1000 0
-1000 0 0 1005 0 1005 -375 0 -375 0 0 -1005z"/>
</g>
</svg>
