<?xml version="1.0" standalone="no"?>
<!DOCTYPE svg PUBLIC "-//W3C//DTD SVG 20010904//EN"
 "http://www.w3.org/TR/2001/REC-SVG-20010904/DTD/svg10.dtd">
<svg version="1.0" xmlns="http://www.w3.org/2000/svg"
 width="804.000000pt" height="804.000000pt" viewBox="0 0 804.000000 804.000000"
 preserveAspectRatio="xMidYMid meet">

<g transform="translate(0.000000,804.000000) scale(0.100000,-0.100000)"
fill="#000000" stroke="none">
<path d="M2142 6087 l-1872 -1872 0 -2003 0 -2002 1385 0 1385 0 0 1013 c0
594 4 1047 10 1097 27 238 130 443 303 606 103 97 216 166 344 210 120 41 199
54 323 54 124 0 203 -13 323 -54 304 -104 535 -357 625 -685 l27 -96 3 -1073
3 -1072 1384 0 1385 0 0 2003 0 2002 -1873 1873 c-1029 1029 -1874 1872 -1877
1872 -3 0 -848 -843 -1878 -1873z"/>
</g>
</svg>
